PathFileType	4	(X/Y/Z)	48_1_25_p0_0-315_filt_butterworth.trc
DataRate	CameraRate	NumFrames	NumMarkers	Units	OrigDataRate	OrigDataStartFrame	OrigNumFrames
59.0	59.0	6	27	m	59.0	78	315
Frame#	Time	RHip			RKnee			RAnkle			RBigToe			RSmallToe			RHeel			LHip			LKnee			LAnkle			LBigToe			LSmallToe			LHeel			Neck			Head			Nose			RShoulder			RElbow			RWrist			RThumb			RIndex			RPinky			LShoulder			LElbow			LWrist			LThumb			LIndex			LPinky			
		X1	Y1	Z1	X2	Y2	Z2	X3	Y3	Z3	X4	Y4	Z4	X5	Y5	Z5	X6	Y6	Z6	X7	Y7	Z7	X8	Y8	Z8	X9	Y9	Z9	X10	Y10	Z10	X11	Y11	Z11	X12	Y12	Z12	X13	Y13	Z13	X14	Y14	Z14	X15	Y15	Z15	X16	Y16	Z16	X17	Y17	Z17	X18	Y18	Z18	X19	Y19	Z19	X20	Y20	Z20	X21	Y21	Z21	X22	Y22	Z22	X23	Y23	Z23	X24	Y24	Z24	X25	Y25	Z25	X26	Y26	Z26	X27	Y27	Z27	
78	1.3220338983050848	0.19789475690198793	0.4291603154972129	0.6752328051889097	0.17094497285810295	0.5749289549768173	1.1535206251738983	0.13670780362636392	0.642459258687976	1.5275824466853807	0.10928794930763239	0.4900134029337042	1.5662429577235661	0.172828353070279	0.479714660885867	1.5598812672572349	0.1295324259726935	0.7571880123920592	1.596833215229253	-0.028104146533709018	0.5209113783039971	0.6714723465145507	-0.037416418146139205	0.6057049649608972	1.1244601061137378	-0.02190319820426057	0.6874442243870794	1.5316265761971575	-0.05998681131862686	0.4762256657462396	1.523626054143234	-0.10029632456354619	0.5727915300585955	1.5511911260538522	-0.0009559179468874102	0.73993041770417	1.5814744799219733	0.1103873093452869	0.4577159844706709	0.17107395939028194	0.12114028767249396	0.3843690650997537	-0.07646820530285298	0.09839577739760777	0.32477430394716406	0.059577989999308203	0.2633232486815614	0.43579784759648066	0.2706058562031748	0.3089012002787303	0.44219162200307816	0.533300042580612	0.25267601734536604	0.3751158798388925	0.7523930633510005	0.17144059038368445	0.36063744586281404	0.8435174024761418	0.1799522755661345	0.36835711452041014	0.8708481989885598	0.23092899099591327	0.3909107752133204	0.8792520769312837	-0.06112887146991678	0.4557650356877941	0.24877484713769196	-0.1266563714057762	0.5176826682835539	0.5041741750995022	-0.11024724733398676	0.44558757084952944	0.7387336039180129	-0.0528197476536336	0.3879758564443051	0.8243718926046605	-0.0622286409454198	0.38214978852196085	0.8342157101146195	-0.1349898900133142	0.42181016412141337	0.8312835626014515
79	1.3389830508474576	0.19678787613841942	0.4301592360279841	0.6784192943246801	0.1709571821653608	0.5748969312779697	1.1535905451653083	0.13491904099655452	0.6377937894008321	1.5272209459680999	0.10957491498145058	0.4884678897293032	1.565464603519027	0.1727088629011337	0.4753139319388158	1.5576149733973808	0.12982303896273395	0.7578254452169164	1.598181522463986	-0.029357567216485393	0.52592579748689	0.6746722341577973	-0.037273126377997484	0.6058583337799451	1.1249982896219244	-0.02183526754421478	0.6880616663002158	1.533200945964615	-0.060032864789227494	0.47609902655452696	1.5235776894553703	-0.10032541395328975	0.5728325983832411	1.5519858622336875	-0.000789707924069537	0.7403775310504419	1.5809407446760257	0.11036622453066867	0.45748376187458134	0.17064656817592716	0.121207190738701	0.38438959501247755	-0.07645761638120767	0.09839286551219285	0.32365059415785835	0.05956441829816872	0.26179956525284775	0.4327330198712846	0.27146363176098115	0.30920336475732424	0.4447188614881413	0.5324314136379137	0.2556946544265512	0.37958535833549395	0.7508153541897454	0.1767018932796316	0.3645418230695949	0.84637366686385	0.18223342656344854	0.37052269324774995	0.8721738895278233	0.23753915779350399	0.4058556923838211	0.8804441930422491	-0.061003299624616404	0.4558264173444	0.24692796188266627	-0.12858440228767734	0.5259571260950849	0.5038078485819094	-0.11171083635963718	0.4462379075004854	0.7390246702559045	-0.05422579494274009	0.3892679731917702	0.8246029459821964	-0.0648256657278582	0.3869175362879541	0.8353911922480177	-0.13533984492046192	0.42528492834643244	0.8325354547194604
80	1.3559322033898304	0.1947760546024931	0.43049531336353863	0.6781756210584746	0.1710225653506669	0.5749273656669247	1.1536475691948962	0.1334490872120435	0.6340912649653396	1.5265506634512833	0.1095633915436385	0.48846428046310897	1.5654228315746992	0.17267517114472838	0.47222140521604306	1.5560424546268525	0.1301509976956205	0.7586417268568469	1.5999021949914534	-0.031110592101731272	0.5278397121365491	0.6748749298526839	-0.037154192010442344	0.6058449275571753	1.1250102439154206	-0.02185179943065748	0.6881816903203303	1.5337724086450057	-0.060071625687923506	0.4760345565329842	1.5235270139525519	-0.10043491375402645	0.572477584101553	1.5520416599030626	6.16567491406236e-05	0.7414390975492057	1.580585008711181	0.11031739441004502	0.45751268923785626	0.1706394231187632	0.121676415660425	0.38540049349133776	-0.07646122762860803	0.09845249739297261	0.3245064185230199	0.059542235391074456	0.26113500764109027	0.4314883502966687	0.27275589953379775	0.3106555309242258	0.44656487653607313	0.5307470652180201	0.2581372702189839	0.38289255342992035	0.7480448221479266	0.17875314424366698	0.3675878172355862	0.8462222772504918	0.18285365570665207	0.3713791078803739	0.8726246313234524	0.23969930998745836	0.42110039586225645	0.882075537451344	-0.06098464904327269	0.45552360102973627	0.24520360504533378	-0.12954996397334556	0.530681086831652	0.5022042709224932	-0.11203666641765618	0.44608409353007983	0.7389632751410148	-0.05475219048614362	0.38946142016551877	0.82437193968521	-0.06661819654624215	0.3902780644021643	0.8359355266535744	-0.13555450113009102	0.4282521872295835	0.833557827475158
81	1.3728813559322033	0.19249968378650628	0.43034021275162115	0.6754462817254637	0.17110935390780035	0.574980955457917	1.1536237672432816	0.13296921963056035	0.6328311098953522	1.5256504381374487	0.10948300255504984	0.48879064856259075	1.565140011609622	0.17313709754485052	0.4722340073360002	1.5560521513735053	0.13026725006583692	0.7592706337163257	1.6012755903757347	-0.03312675710807504	0.5276901210156213	0.6728122419831708	-0.037120038865824906	0.6058196421522626	1.1248866185659898	-0.0218956061155885	0.6880793520796332	1.5337718043034385	-0.060102731732963655	0.4760589046138035	1.5234501107294167	-0.1004835429959958	0.5722201495639919	1.5518294993206563	0.0006869804513757737	0.7424929056181291	1.5809805569359652	0.1102516028921312	0.4578665614448143	0.17073814418087468	0.12278321751347594	0.38801452155340593	-0.076538502810132	0.09857438585456588	0.3272105393761567	0.05950959193329374	0.26110934787360807	0.4314379962777706	0.27375218973810583	0.31314491117073506	0.4481547451024987	0.5277591070621868	0.2598638899509063	0.38402060738739974	0.745024422533834	0.17838310734851837	0.371022160849436	0.842906101329634	0.18266834997130488	0.3716003241183373	0.8707179656542894	0.23841936742453998	0.4325097341265946	0.8829985879947762	-0.061396574665162525	0.4539236201820493	0.24400066885590838	-0.12968496789421885	0.5321403128076435	0.5003177112669066	-0.11198915415982477	0.4456905406480799	0.7382232550294189	-0.054720331466387905	0.38938128430635083	0.8235397080010023	-0.06696675753605238	0.39150712073339167	0.8351228954474145	-0.13487940695024042	0.4325587363024947	0.834792274326334
82	1.3898305084745763	0.19106824176014164	0.4304636147748767	0.6729535956333323	0.17098537657017468	0.5749940266818329	1.1533581419193715	0.13390605252463086	0.634226127077227	1.5249306886524197	0.10945565445056088	0.48904140987461564	1.5640619504561388	0.17441676525986077	0.47540709707089923	1.557641127142906	0.13005192250754316	0.759426087832786	1.6021004644506325	-0.03433010709270587	0.5261630136970226	0.6707365321470125	-0.03721079969335121	0.6058453080554409	1.1248103864336803	-0.02186095899816326	0.6879837606021167	1.5333235488840506	-0.06013411265936007	0.47613900652659374	1.5233579768329428	-0.10038138886329623	0.5720097195920563	1.5512457002911157	0.0005672014255879511	0.7431951697060712	1.582272582151691	0.11025442266058966	0.45798701274353676	0.17077781657759275	0.12424126892103832	0.3915254351235434	-0.07669377212562942	0.09872100009271001	0.33085146073535615	0.05940209746096021	0.26134949729681145	0.431694241396628	0.27410056325154086	0.31597769089675704	0.4496731020179875	0.5241748086554757	0.2602709258901246	0.3838562167110824	0.7420270350178333	0.17615196778602202	0.3743926514200217	0.8370072760915787	0.18165155444088396	0.37106286310463593	0.865821669964032	0.2346158435570697	0.4346544560421541	0.881012794699798	-0.062442325350119024	0.4503948788413787	0.2434111444936376	-0.12978335812275682	0.5333568107771046	0.49910956338661516	-0.11157011440102275	0.4456735314460163	0.7363478596221692	-0.05425938619383498	0.3893183039530017	0.8218587782218113	-0.06625380690615398	0.39138449136007464	0.8329990003401231	-0.13334219579380271	0.4384085693067862	0.8363171812665972
83	1.4067796610169492	0.19130730385594327	0.4322106567367907	0.6722848740185449	0.17029939002741543	0.5748990619537271	1.1527281152024087	0.13651783020820804	0.6381216459624398	1.5251717591168505	0.1094991730775333	0.4892475414296831	1.5625160740013266	0.1761415873304143	0.479945120915804	1.5599101373852464	0.12967807006560284	0.7590345681700116	1.602736974239896	-0.034232173835526916	0.5239632282657358	0.6697992423483031	-0.03736244638612274	0.6058704858250819	1.1247774578202245	-0.0216677343093027	0.6878602722564071	1.532138086452756	-0.060132859878750985	0.4762511051681099	1.5233981082718873	-0.10009363211919386	0.5717544682691594	1.550086588333882	-0.0001223227219150744	0.7432523189377811	1.5836139469871928	0.11051433755870876	0.45666645882797785	0.1707152493250817	0.12538889361287006	0.3942910934098794	-0.0768523108211096	0.09883053722543941	0.3337579480318614	0.05902704348510038	0.26165103967924697	0.43185434005026957	0.27402323269332707	0.3182989741585202	0.45072291061342856	0.5218279017080075	0.25912076407774176	0.38382172820372473	0.7387273124021456	0.17190082390549918	0.37528217750970433	0.8295771103935832	0.17907032695304778	0.36922675262809146	0.8590419103425478	0.22867469269733254	0.42607568764470194	0.8751760317633974	-0.0638109337383219	0.4459519082769654	0.24324297712883755	-0.13042895784056543	0.536525142631565	0.49828912001632514	-0.11004097164536641	0.4471448338049613	0.7336413694705191	-0.05329808548737751	0.38929209602398096	0.8197726250432988	-0.0653081679470109	0.3910156213168043	0.8305957604717461	-0.13160370859988443	0.44381300918690103	0.83742059631701
